<svg xmlns="http://www.w3.org/2000/svg" fill="#ffffff" viewBox="0 0 139 32" class="Logo_LogoSvg__Mqzzf"><path fill="currentColor" d="M41.994 11.36h1.628l-.847-2.166zM40.3 13.463l2.41-5.713h.65l2.41 5.713h-1.238l-.52-1.445h-2.15l-.585 1.445zm5.665-.262-.065-1.051c.52.46 1.107.722 1.693.722q.488 0 .781-.197a.665.665 0 0 0 .065-.985c-.195-.263-.586-.394-1.432-.788-.782-.394-1.172-.92-1.172-1.642 0-.46.195-.853.52-1.182.717-.656 1.954-.394 2.084-.394.26.066.456.132.652.197l.065.985a2.7 2.7 0 0 0-.717-.394c-.781-.262-1.627-.065-1.627.591 0 .329.195.526.65.788.977.526 1.498.723 1.824 1.182.456.526.456 1.642-.26 2.168-.391.262-.847.46-1.498.46a4.5 4.5 0 0 1-1.563-.46m5.405.262V8.406c-.456 0-.977.065-1.693.131l.065-.854h4.362l.066.854c-.912-.131-1.433-.131-1.693-.131v4.99H51.37zm5.665-.59c.911 0 1.693-.723 1.693-2.3 0-.13 0-1.378-.782-2.035-.26-.197-.52-.263-.911-.263-1.172 0-1.693 1.117-1.693 2.299.065 1.576.846 2.298 1.693 2.298m0 .722c-1.693 0-2.865-1.248-2.865-2.956 0-1.773 1.172-2.955 2.865-2.955S59.9 8.865 59.9 10.638c0 1.708-1.172 2.956-2.865 2.956m3.776-.132V7.75h.587l3.386 3.874V7.75h.781v5.713h-.586l-3.386-3.874v3.874zm7.814 0 .652-5.713h.586l2.018 4.006 1.954-4.006h.586l.651 5.713h-1.172l-.326-3.546-1.562 3.284h-.521l-1.628-3.284-.326 3.48h-.912zm8.53-2.101h1.629l-.847-2.167zm-1.692 2.101 2.409-5.713h.651l2.41 5.713h-1.238l-.52-1.445h-2.15l-.585 1.445zm6.967-3.152c.13 0 .326.066.456.066.912 0 1.172-.526 1.172-.985 0-.723-.52-.985-1.172-.985h-.39v1.904zm-1.042 3.152V7.815c.326-.066.717-.066 1.303-.066.52 0 .976.066 1.302.197.52.197 1.172.591 1.172 1.445 0 .328-.13.656-.325.985-.196.262-.521.46-.912.59l2.019 2.562h-1.303l-1.758-2.43h-.39v2.43h-1.108zm5.86 0V8.406c-.455 0-.976.065-1.692.131l.065-.854h4.363l.065.854c-.912-.131-1.433-.131-1.693-.131v4.99H87.25zm3.517-5.713h1.107v5.713h-1.107zm2.214 5.713V7.75h.586l3.386 3.874V7.75h.782v5.713h-.587l-3.386-3.874v3.874z"/><path fill="currentColor" d="M138.173 1.05C137.783.395 137.066 0 136.22 0H80.415c-.912 0-2.344 0-3.842 1.51-.456.46-.781.985-.977 1.38-.456.853-.781 1.444-2.344 1.444h-8.14c-1.497 0-1.888-.591-2.344-1.445-.26-.46-.52-.919-.976-1.379C60.294 0 58.862 0 57.95 0H2.21C1.298 0 .582.394.257 1.05c-.391.657-.326 1.511.13 2.233l.977 1.708c.52.92 1.237 1.05 1.758 1.182.456.065.781.131 1.107.788l.911 1.576c.717 1.313 1.498 1.444 2.084 1.576.456.065.912.131 1.498 1.182s1.432 2.626 3.581 3.283c.195.066 20.772 6.107 20.837 6.107 2.15.723 2.735 1.51 3.386 2.496.391.59 1.498 2.166 4.103 2.889l19.795 5.385c2.149.59 3.451-.46 4.102-1.051l3.582-3.415c.52-.46.781-.657 1.107-.657s.586.197 1.107.657l3.581 3.415c.651.525 1.954 1.576 4.103 1.05L97.8 26.07c2.67-.723 3.712-2.299 4.102-2.89.652-.985 1.238-1.838 3.386-2.495 0 0 20.577-6.041 20.838-6.107 2.083-.657 2.995-2.233 3.581-3.283s.977-1.117 1.433-1.182c.586-.132 1.432-.263 2.148-1.576l.912-1.576c.391-.657.651-.723 1.107-.788.521-.132 1.237-.263 1.758-1.182l.977-1.708c.456-.788.521-1.576.13-2.232M100.08 5.648v9.85H38.35v-9.85zM77.94 30.01c-1.497 0-2.018-1.313-2.409-2.364-.456-1.182-2.865-8.93-3.581-11.032h3.06a487 487 0 0 0 5.926 9.915c.26.395.911 1.51 2.084 2.233-4.689 1.248-4.559 1.248-5.08 1.248m7.228-1.97c-1.693 0-2.604-1.313-3.125-2.167-1.107-1.773-3.647-6.042-5.535-9.26h3.386c2.149 2.3 6.642 7.093 8.4 8.932.26.262.847.853 1.693 1.378-4.167 1.051-4.167 1.117-4.819 1.117m6.903-1.904c-1.302 0-2.28-.92-2.93-1.576-1.563-1.576-5.275-5.516-7.554-8.012h3.712c2.344 1.773 7.748 5.779 9.897 7.224.391.262 1.172.722 2.084 1.05-4.818 1.314-4.688 1.314-5.21 1.314m8.725-3.678c-.586.92-1.042 1.38-2.083 1.38-.977 0-1.954-.46-2.8-1.052-1.758-1.247-5.86-4.202-8.465-6.172h4.427c5.405 2.692 7.684 3.94 9.182 4.4q.39.097.781.197c-.456.328-.716.788-1.042 1.247m1.628-2.56c-1.237 0-2.865-.854-7.814-3.35h4.819l6.772 1.708c.456.13.912.197 1.302.328-3.841 1.182-4.428 1.313-5.079 1.313m13.154-3.678c-3.972 1.182-4.623 1.445-5.73 1.445-.782 0-1.759-.132-3.386-.591l-5.34-1.38V13.79zm4.167-1.182c-1.302.328-2.474.197-4.297-.132l-14.196-2.364v-1.51l23.247 2.627zm8.726-4.4c-.195.328-.391.657-.586.92-.782 1.116-1.302 1.05-3.777.787L101.122 9.72V8.274l26.502 1.576c.196 0 .717.066 1.303.066-.131.197-.326.46-.456.722m4.493-4.4s-.521.854-.716 1.314c-.782 1.247-1.172 1.247-3.386 1.05l-27.675-1.641V5.779h32.102c-.13.197-.195.328-.325.46m3.972-3.677-.716 1.248c-.521.788-.717.788-2.41.788H76.182c.586-.723.782-1.445 1.433-2.102C78.722 1.38 79.634 1.38 80.48 1.38h55.805c.391 0 .651.131.781.328.065.197.065.526-.13.854m-73.582 27.12c.26-.328.456-.787.782-1.575.456-1.183 2.995-9.26 3.712-11.492h2.8c.716 2.298 3.255 10.31 3.711 11.492.26.788.521 1.247.782 1.576-.066-.066-.196-.132-.261-.197l-3.581-3.415c-.586-.526-1.173-1.05-2.019-1.05s-1.498.524-2.019 1.05l-3.581 3.415c-.13.065-.26.13-.326.197m-7.944-.984c1.172-.723 1.889-1.84 2.084-2.233 1.302-2.036 4.298-7.092 5.926-9.916h3.06c-.651 2.102-3.126 9.85-3.581 11.032-.391 1.05-.912 2.364-2.41 2.364-.52.066-.39.066-5.079-1.247m-6.902-1.84c.846-.459 1.432-1.05 1.693-1.378 1.758-1.773 6.316-6.632 8.4-8.93h3.386c-1.888 3.217-4.428 7.485-5.535 9.258-.52.854-1.432 2.167-3.125 2.167-.652.066-.717 0-4.82-1.116m-7.293-2.035c.911-.262 1.693-.788 2.084-1.05 2.148-1.445 7.553-5.45 9.897-7.224h3.712c-2.28 2.496-5.99 6.436-7.554 8.012-.65.656-1.562 1.576-2.93 1.576-.52 0-.456 0-5.21-1.314m-4.558-3.677c.26-.066.52-.066.781-.197 1.563-.46 3.842-1.642 9.182-4.4h4.427c-2.67 1.97-6.707 4.925-8.465 6.173-.781.59-1.823 1.05-2.8 1.05-1.042 0-1.497-.46-2.083-1.379-.326-.393-.652-.853-1.042-1.247m-5.665-2.495c.39-.066.846-.197 1.302-.329l6.772-1.707h4.819c-4.95 2.495-6.577 3.349-7.814 3.349-.717-.066-1.303-.197-5.08-1.314m6.316-4.86v1.905l-5.34 1.378c-1.628.395-2.604.591-3.386.591-1.107 0-1.758-.262-5.73-1.444zM14.06 13.66l23.247-2.627v1.51l-14.195 2.364c-1.889.329-3.061.46-4.298.132zM9.503 9.916c.521-.066 1.107-.066 1.303-.066l26.502-1.576V9.72l-22.986 2.626c-2.475.263-2.996.329-3.777-.788-.195-.262-.39-.59-.586-.919-.13-.263-.26-.525-.456-.722M5.205 5.844h32.103v1.182L9.633 8.668c-2.214.131-2.604.197-3.386-1.05-.26-.46-.716-1.314-.716-1.314-.13-.197-.26-.328-.326-.46M1.43 1.707c.13-.197.39-.328.781-.328h55.805c.846 0 1.823 0 2.865 1.116.651.657.846 1.38 1.433 2.102H4.685c-1.694 0-1.889 0-2.41-.788L1.56 2.56c-.195-.328-.26-.657-.13-.854"/></svg>