<?xml version="1.0" encoding="UTF-8"?>
<svg width="200px" height="200px" viewBox="0 0 200 200" version="1.1" xmlns="http://www.w3.org/2000/svg" xmlns:xlink="http://www.w3.org/1999/xlink">
    <!-- Generator: Sketch 54.1 (76490) - https://sketchapp.com -->
    <title>bentley</title>
    <desc>Created with Sketch.</desc>
    <g id="bentley" stroke="none" stroke-width="1" fill="none" fill-rule="evenodd">
        <g id="bentley_BGL">
            <g id="bentley" transform="translate(19.000000, 0.000000)">
                <g id="g10">
                    <g transform="translate(81.187421, 99.589367) scale(-1, 1) rotate(-180.000000) translate(-81.187421, -99.589367) translate(0.000000, 0.076728)">
                        <g id="g12">
                            <path d="M81.4894924,198.761717 C113.087727,198.912453 141.20851,191.390561 162.072316,180.709538 C162.072316,180.709538 159.71516,85.6463091 159.50244,78.6398069 C159.275659,71.1932829 158.443828,65.6268933 153.757182,56.9018237 C150.315108,50.4928486 146.009,42.7611002 124.426752,25.4607939 C111.201367,14.8592002 81.1357148,0.252271987 81.1357148,0.252271987 L80.4313345,0 C80.4313345,0 50.8704957,14.8592002 37.6455638,25.4607939 C16.0634981,42.7611002 11.7573446,50.4928486 8.31504328,56.9018237 C3.62848808,65.6268933 2.79684315,71.1932829 2.57006264,78.6398069 C2.35692072,85.6463091 0,180.709538 0,180.709538 C20.8638064,191.390561 48.984589,198.912453 80.5828239,198.761717 L81.4894924,198.761717" id="path14" fill="#FFFFFF"></path>
                            <path d="M80.4313345,188.870477 C48.720163,188.193971 28.9899869,183.00397 8.23957073,173.639401 C8.23957073,173.639401 10.521028,91.6260935 10.7341563,84.6195913 C10.9609368,77.1730673 10.5452935,70.7040688 15.2318487,61.9789991 C18.67415,55.5700241 22.9803035,47.8382756 44.5623692,30.5379694 C53.7528759,23.1704237 70.8661864,13.7824329 80.4313345,8.71830008 L80.4063887,3.72995938 C72.3171281,7.92761462 51.4555894,19.0572346 40.9338811,27.4916641 C19.3518155,44.7919704 15.0456619,52.5237188 11.6033606,58.9326939 C6.9168054,67.6577635 6.65210719,73.5626314 6.42532669,81.0091555 C6.21219837,88.0156576 3.81735542,178.378099 3.81735542,178.378099 C24.4602278,187.918224 49.0680443,195.039809 80.4313345,194.966492 L80.4313345,188.870477" id="path16" fill="#253B7D"></path>
                            <path d="M80.4313345,16.1335939 C71.1714329,20.5343542 59.0813107,26.6697935 49.7406752,33.8478365 C26.8355721,51.4487115 25.1373943,56.8111115 21.6950931,63.2200865 C17.0085379,71.9451561 17.4241812,78.4141546 17.1974007,85.8606787 C16.9842723,92.8671809 15.1563761,169.690487 15.1563761,169.690487 C37.2674753,177.926794 52.1218705,180.860273 80.4313345,182.101361 L80.4313345,16.1335939" id="path18" fill="#253B7D"></path>
                            <path d="M80.3982246,188.90613 C112.109396,188.229173 131.8393,183.039171 152.589716,173.674603 C152.589716,173.674603 150.308304,91.6617466 150.095131,84.6552444 C149.86835,77.2087204 150.283812,70.7397218 145.597166,62.0146522 C142.155092,55.6056772 137.848983,47.8734774 116.266736,30.5732163 C107.076683,23.2060316 89.9969362,13.7824329 80.4313345,8.71830008 L80.4231704,3.7652198 C88.5119775,7.9628615 109.37397,19.0928425 119.895678,27.526911 C141.477471,44.8272172 145.78358,52.5593719 149.225654,58.9683469 C153.9123,67.6929653 154.17718,73.5982845 154.40396,81.0448085 C154.617134,88.0513107 157.011936,178.4133 157.011936,178.4133 C136.369467,187.953877 111.761515,195.075011 80.397771,195.002131 L80.3982246,188.90613" id="path20" fill="#100F0D"></path>
                            <path d="M80.3982246,16.1693823 C89.6581261,20.569601 101.748702,26.7050404 111.088884,33.8830834 C133.993715,51.4839133 135.691847,56.8467645 139.133922,63.2557395 C143.820568,71.9808092 143.405106,78.4498077 143.631886,85.8963317 C143.84506,92.9028339 145.672911,169.725689 145.672911,169.725689 C123.561812,177.961996 108.707689,180.895475 80.3982246,182.136562 L80.3982246,16.1693823" id="path22" fill="#231F20"></path>
                            <path d="M37.9478169,54.1953506 L37.9478169,70.1412921 L48.2285028,70.1412921 L48.2285028,149.119577 L35.0751428,149.119577 L35.0751428,167.322041 L87.2347497,167.322041 C87.2347497,167.322041 101.21985,167.62261 110.593142,162.883913 C118.252426,159.012172 123.559997,151.09945 124.124681,140.996097 C124.653533,131.518251 121.968452,123.575743 116.414144,118.581157 C110.139581,112.939851 102.202263,112.037242 102.202263,112.037242 C102.202263,112.037242 118.076898,111.059265 125.031803,101.281753 C131.525436,92.1518632 132.099644,80.8611276 126.392486,70.2924791 C120.420448,59.2337139 105.75546,54.7206691 98.4984838,53.8180601 C91.2415076,52.9154511 37.9478169,54.1953506 37.9478169,54.1953506" id="path24" fill="#FFFFFF"></path>
                            <polyline id="path26" fill="#312827" points="37.9478169 54.2693646 37.9478169 70.1778478 48.1532117 70.1778478 48.1532117 149.043307 34.88628 149.043307 34.88628 167.433965 42.1432562 157.843744 60.0591882 157.843744 60.0591882 62.7313237 43.2771587 62.7313237 37.9478169 54.2693646"></polyline>
                            <path d="M72.1919452,118.805906 L72.1919452,148.592002 C72.1919452,148.592002 85.4586048,149.83309 91.0147271,147.689393 C96.5708495,145.545697 101.614901,141.303435 100.426118,133.021998 C99.1788253,124.334386 93.2825322,120.385472 87.6130195,119.482863 C82.5843886,118.682249 72.1919452,118.805906 72.1919452,118.805906" id="path28" fill="#100F0D"></path>
                            <path d="M72.3053355,100.640901 L72.3053355,69.9521955 C72.3053355,69.9521955 88.9737026,69.1624127 94.1896542,71.4189351 C99.4056058,73.6754575 105.075118,78.8654591 103.714435,88.1172011 C102.499799,96.3756219 96.0038982,99.3998133 88.7469221,100.528075 C81.4899459,101.656336 72.3053355,100.640901 72.3053355,100.640901" id="path30" fill="#100F0D"></path>
                            <path d="M72.1896774,118.80726 C72.1896774,118.80726 82.5821208,118.683603 87.6112053,119.484217 C93.2807179,120.386826 99.177011,124.33574 100.424304,133.023352 C101.613087,141.304789 96.5690352,145.547051 91.0129129,147.690747 C85.4563369,149.834444 72.1896774,148.593356 72.1896774,148.593356 L60.0591882,157.843744 L82.6238484,157.843744 C82.6238484,157.843744 93.8494834,157.843744 100.312728,154.571787 C106.775972,151.299829 112.332095,145.207219 112.445485,138.888956 C112.558875,132.570693 112.558875,124.898517 105.301899,119.934167 C98.407318,115.217584 93.8494834,114.744166 89.4272636,113.615905 C85.0050437,112.487643 79.5623116,111.697861 79.5623116,111.697861 C79.5623116,111.697861 96.6842397,111.359382 106.889362,104.815467 C115.509289,99.2874385 120.949754,91.9532893 117.207875,79.2039375 C113.465997,66.4545857 100.570804,63.1921056 94.3030444,62.3928454 C85.4586048,61.2645841 60.5127492,62.3928454 60.5127492,62.3928454 L72.3030677,69.9535494 C72.3030677,69.9535494 88.9718883,69.1637666 94.1878399,71.420289 C99.4037916,73.6768114 105.073304,78.8668131 103.712621,88.118555 C102.497985,96.3769758 96.002084,99.4011672 88.7451078,100.529428 C81.4876781,101.65769 72.3030677,100.642255 72.3030677,100.642255" id="path32" fill="#312827"></path>
                            <path d="M80.3886998,182.115802 C108.698164,180.874715 123.552287,177.941236 145.663386,169.704929 C145.663386,169.704929 143.835535,92.8820739 143.622362,85.8755717 C143.395581,78.4290477 143.811043,71.9600492 139.124397,63.2354308 C135.682322,56.8264558 133.98419,51.4636046 111.079359,33.8628198 C101.738724,26.6851379 89.6486014,20.5493375 80.3886998,16.1491187 L80.4218097,8.69799138 C89.9874114,13.7621242 107.066705,23.185768 116.257212,30.5529527 C137.839459,47.8531687 142.145567,55.5853685 145.587641,61.9943435 C150.274287,70.7189618 149.858825,77.1879604 150.085606,84.6344844 C150.29878,91.6409866 152.580191,173.653843 152.580191,173.653843 C131.829775,183.018411 112.099871,188.208413 80.3886998,188.88537 L80.3886998,182.115802" id="path34" fill="#312827"></path>
                        </g>
                    </g>
                </g>
            </g>
        </g>
    </g>
</svg>